<svg width="50" height="50" viewBox="0 0 50 50" fill="none" xmlns="http://www.w3.org/2000/svg">
<path fill-rule="evenodd" clip-rule="evenodd" d="M4.16699 24.9998C4.16699 13.5124 13.5129 4.1665 25.0003 4.1665C36.4878 4.1665 45.8337 13.5124 45.8337 24.9998C45.8337 36.4873 36.4878 45.8332 25.0003 45.8332C13.5129 45.8332 4.16699 36.4873 4.16699 24.9998ZM24.9759 13.5191C24.5619 13.5256 24.1673 13.6961 23.8789 13.9933C23.5905 14.2905 23.4319 14.6899 23.4378 15.104V27.604C23.4349 27.8111 23.4732 28.0166 23.5504 28.2088C23.6276 28.4009 23.7422 28.5758 23.8876 28.7232C24.033 28.8707 24.2062 28.9878 24.3972 29.0677C24.5882 29.1476 24.7933 29.1888 25.0003 29.1888C25.2074 29.1888 25.4124 29.1476 25.6034 29.0677C25.7945 28.9878 25.9677 28.8707 26.1131 28.7232C26.2585 28.5758 26.3731 28.4009 26.4503 28.2088C26.5275 28.0166 26.5658 27.8111 26.5628 27.604V15.104C26.5658 14.8949 26.5268 14.6873 26.4481 14.4935C26.3694 14.2997 26.2526 14.1237 26.1046 13.9759C25.9566 13.8281 25.7804 13.7115 25.5866 13.6331C25.3927 13.5546 25.185 13.5159 24.9759 13.5191ZM25.0003 32.2915C24.4478 32.2915 23.9179 32.511 23.5272 32.9017C23.1365 33.2924 22.917 33.8223 22.917 34.3748C22.917 34.9274 23.1365 35.4573 23.5272 35.848C23.9179 36.2387 24.4478 36.4582 25.0003 36.4582C25.5529 36.4582 26.0828 36.2387 26.4735 35.848C26.8642 35.4573 27.0837 34.9274 27.0837 34.3748C27.0837 33.8223 26.8642 33.2924 26.4735 32.9017C26.0828 32.511 25.5529 32.2915 25.0003 32.2915Z" fill="#3473AE"/>
</svg>
