<svg width="200" height="64" viewBox="0 0 200 64" fill="none" xmlns="http://www.w3.org/2000/svg">
<path d="M59.0357 21.735C58.6227 20.6337 56.7645 16.2285 51.1201 16.2285H50.9824L38.3172 16.1597C40.038 17.674 41.0705 20.0142 41.0705 22.7675V40.8703H46.3019C51.3266 40.6636 52.9788 38.5301 53.4603 37.4976H53.7357V46.0327H53.4603C52.9788 44.9314 51.1201 42.6599 45.4757 42.6599H41.0705V62.9654H40.1071C34.9445 62.9654 31.5718 59.5238 31.5718 54.4301V14.1636H59.311V21.735H59.0357Z" fill="#22325B"/>
<path d="M73.0078 60.0745C75.4857 60.0745 77.413 57.5275 78.5831 54.8431C78.5143 54.6368 78.5143 54.4301 78.5143 54.2236V48.8548C78.5143 46.9275 78.7208 44.1054 78.6522 41.1457C76.3117 45.895 68.74 48.2353 68.74 54.7743C68.74 58.2847 70.6676 60.0745 73.0078 60.0745ZM68.1208 30.6143C65.2985 33.2301 71.5624 31.6467 71.5624 36.0519C71.5624 39.4249 69.1533 41.0768 66.7439 41.0768C64.1286 41.0768 61.4442 39.2184 61.4442 35.6392C61.4442 34.3312 61.9258 33.2987 62.6141 32.4727C65.6426 28.4117 70.874 27.1039 74.7974 27.1039C85.0533 27.1039 87.8756 33.7117 87.8756 45.8262V62.9654H87.2561C83.3325 62.9654 80.373 60.9691 79.1338 57.7342C77.2065 60.9005 74.1779 63.5161 70.1167 63.5161C64.3348 63.5161 58.6909 60.0057 58.6909 54.7743C58.6909 44.1054 78.5831 43.9678 78.239 36.8779C77.6883 33.2301 76.2429 29.3065 71.8375 29.3065C70.5299 29.3065 69.1533 29.7883 68.1208 30.6143Z" fill="#22325B"/>
<path d="M94.0693 27.9298H94.5514C98.9566 27.9298 102.123 30.4077 103.086 34.2625C105.289 29.8571 109.144 27.7233 113.136 27.7233C116.578 27.7233 118.436 30.2701 118.436 32.6792C118.436 35.4324 116.164 36.8093 113.962 36.8093C111.759 36.8093 109.625 35.5013 109.625 32.748C109.625 32.4727 109.97 31.0272 109.281 31.0272C109.006 31.0272 108.593 31.2337 107.973 31.7844C105.496 33.7805 103.431 37.5662 103.431 43.7612V62.9654H102.949C97.6488 62.9654 94.0693 59.455 94.0693 54.0859V27.9298Z" fill="#22325B"/>
<path d="M122.771 27.9298C126.694 27.9298 129.585 29.8571 130.893 32.9545C132.27 29.9259 134.679 27.6545 138.671 27.6545C144.453 27.6545 147.137 30.3389 148.308 33.7116C149.616 30.2701 152.093 27.6545 156.361 27.6545C166.961 27.6545 167.099 36.6025 167.099 41.9716V62.9654H166.617C161.317 62.9654 157.806 59.455 157.806 54.0859V40.0443C157.806 33.0921 156.086 30.1324 154.158 30.1324C152.025 30.1324 149.684 33.8493 149.34 39.7002V62.9654H148.858C143.558 62.9654 140.048 59.455 140.048 54.0859V40.0443C140.048 33.0921 138.327 30.1324 136.4 30.1324C134.335 30.1324 132.063 33.6428 131.65 39.2184V62.9654H131.169C125.869 62.9654 122.289 59.455 122.289 54.0859V27.9298H122.771Z" fill="#22325B"/>
<path d="M172.261 55.6693C172.261 52.434 174.945 50.782 177.423 50.782C179.763 50.782 181.966 52.1587 181.966 55.0498C181.966 57.5963 178.938 58.1472 178.938 59.455C178.938 60.4186 181.071 61.7953 184.306 61.7953C187.817 61.7953 191.19 59.9368 191.19 56.2197C191.19 47.6846 173.706 47.547 173.706 36.4651C173.706 30.2015 180.452 27.2415 186.716 27.2415C190.845 27.2415 197.797 28.274 197.797 33.7117C197.797 37.0158 195.251 38.5301 192.704 38.5301C190.226 38.5301 187.817 37.0846 187.817 34.1935C187.817 31.7158 190.432 31.7158 190.432 30.4766C190.432 30.2015 189.951 28.8935 187.266 28.8935C184.375 28.8935 181.691 30.5456 181.691 34.2625C181.691 40.595 200 43.0041 200 54.2236C200 60.3498 192.429 63.5849 185.201 63.5849C180.727 63.5849 172.261 61.5199 172.261 55.6693Z" fill="#22325B"/>
<path d="M12.7045 27.9473H12.1538V54.241C12.1538 59.4722 15.5954 62.9826 20.8265 62.9826H21.4463V36.6888C21.4463 31.4577 17.9356 27.9473 12.7045 27.9473Z" fill="#22325B"/>
<path d="M15.7437 14.3313V0.00187969C13.962 1.76182 12.7049 3.91873 12.1821 6.29669C14.4389 8.30491 15.7757 11.2279 15.7398 14.3312C15.7411 14.3311 15.7424 14.3313 15.7437 14.3313Z" fill="#F79115"/>
<path d="M15.7511 14.1384C15.7717 11.1076 17.0959 8.2639 19.3054 6.29743C18.7826 3.91918 17.5255 1.76199 15.7437 0.00185198L15.7437 14.1381C15.7461 14.1382 15.7486 14.1383 15.7511 14.1384Z" fill="#FFCC19"/>
<path fill-rule="evenodd" clip-rule="evenodd" d="M3.99005 7.47682L3.75388 8.83832C3.75379 8.83882 3.75319 8.84208 3.75216 8.84756C3.74489 8.88647 3.71668 9.03743 3.70542 9.11056L3.70532 9.11126C2.58367 16.4263 7.31224 23.2821 14.3999 24.9445L15.7459 25.2603L15.9821 23.8988C15.9822 23.8983 15.9828 23.895 15.9838 23.8896C15.9911 23.8508 16.0193 23.6997 16.0306 23.6265L16.0307 23.6258C17.1523 16.3107 12.4238 9.45499 5.33612 7.79255L3.99005 7.47682ZM6.15912 10.76C5.94315 15.7356 8.98775 20.2519 13.5769 21.9771C13.7928 17.0015 10.7483 12.4851 6.15912 10.76Z" fill="#006838"/>
<path fill-rule="evenodd" clip-rule="evenodd" d="M27.5095 7.47681L26.1634 7.79253C19.0758 9.45498 14.3472 16.3107 15.4689 23.6258L15.469 23.6265C15.4802 23.6997 15.5085 23.8509 15.5157 23.8896C15.5167 23.895 15.5174 23.8982 15.5174 23.8987L15.7536 25.2602L17.0997 24.9445C24.1873 23.282 28.9159 16.4263 27.7942 9.11124L27.7941 9.11055C27.7829 9.03742 27.7547 8.8865 27.7474 8.84756C27.7464 8.84207 27.7458 8.8388 27.7457 8.8383L27.5095 7.47681ZM17.9227 21.9771C22.5118 20.2519 25.5564 15.7356 25.3404 10.76C20.7513 12.4851 17.7067 17.0014 17.9227 21.9771Z" fill="#006838"/>
<path fill-rule="evenodd" clip-rule="evenodd" d="M7.37095 3.85873L7.1208 4.84045C7.12016 4.84294 7.11806 4.8508 7.11497 4.86233C7.10308 4.9067 7.07666 5.00532 7.06378 5.06038L7.06373 5.06059C5.68344 10.9654 9.1115 16.8657 14.7962 18.6729L15.7629 18.9802L16.0125 17.9975C16.0129 17.9959 16.0146 17.9898 16.0171 17.9804C16.0282 17.9387 16.0565 17.8331 16.0694 17.7781C17.4496 11.8732 14.0216 5.97288 8.33693 4.1658L7.37095 3.85873ZM8.76276 6.36902C8.16904 10.6335 10.5019 14.7449 14.3703 16.4696C14.964 12.2051 12.6311 8.09375 8.76276 6.36902Z" fill="#19A54A"/>
<path fill-rule="evenodd" clip-rule="evenodd" d="M24.1289 3.85868L23.1629 4.16575C17.4782 5.97283 14.0502 11.8732 15.4304 17.778C15.4433 17.8331 15.4716 17.9387 15.4827 17.9803C15.4853 17.9897 15.4869 17.9959 15.4873 17.9975L15.7369 18.9801L16.7036 18.6728C22.3883 16.8657 25.8164 10.9654 24.4361 5.06055L24.436 5.06034C24.4232 5.00527 24.3967 4.90665 24.3849 4.86228C24.3818 4.85076 24.3797 4.84289 24.379 4.8404L24.1289 3.85868ZM22.7371 6.36897C18.8687 8.0937 16.5358 12.2051 17.1295 16.4696C20.9979 14.7448 23.3308 10.6335 22.7371 6.36897Z" fill="#19A54A"/>
</svg>
