<svg width="24" height="24" viewBox="0 0 24 24" fill="none" xmlns="http://www.w3.org/2000/svg">
<path d="M11.689 2.40009C11.5026 2.40295 11.3251 2.47847 11.1953 2.61007C11.0655 2.74166 10.9942 2.91856 10.9968 3.10192V3.79384H10.0593V5.17769H10.9968V5.86961C10.9955 5.9613 11.0127 6.05233 11.0475 6.13742C11.0822 6.2225 11.1338 6.29994 11.1992 6.36524C11.2646 6.43054 11.3426 6.48239 11.4286 6.51778C11.5145 6.55317 11.6068 6.57139 11.7 6.57139C11.7931 6.57139 11.8854 6.55317 11.9713 6.51778C12.0573 6.48239 12.1353 6.43054 12.2007 6.36524C12.2661 6.29994 12.3177 6.2225 12.3524 6.13742C12.3872 6.05233 12.4044 5.9613 12.4031 5.86961V3.10192C12.4044 3.00931 12.3869 2.91738 12.3514 2.83157C12.316 2.74576 12.2635 2.66782 12.1969 2.60237C12.1303 2.53692 12.051 2.48529 11.9638 2.45054C11.8765 2.4158 11.7831 2.39864 11.689 2.40009ZM14.9702 2.40009C14.7839 2.40295 14.6063 2.47847 14.4766 2.61007C14.3468 2.74166 14.2754 2.91856 14.2781 3.10192V3.79384H13.3406V5.17769H14.2781V5.86961C14.2768 5.9613 14.294 6.05233 14.3287 6.13742C14.3635 6.2225 14.415 6.29994 14.4805 6.36524C14.5459 6.43054 14.6238 6.48239 14.7098 6.51778C14.7958 6.55317 14.888 6.57139 14.9812 6.57139C15.0744 6.57139 15.1666 6.55317 15.2526 6.51778C15.3386 6.48239 15.4165 6.43054 15.4819 6.36524C15.5474 6.29994 15.5989 6.2225 15.6337 6.13742C15.6684 6.05233 15.6856 5.9613 15.6843 5.86961V3.10192C15.6857 3.00931 15.6681 2.91738 15.6327 2.83157C15.5973 2.74576 15.5447 2.66782 15.4781 2.60237C15.4115 2.53692 15.3323 2.48529 15.245 2.45054C15.1578 2.4158 15.0643 2.39864 14.9702 2.40009Z" fill="#3473AE"/>
<path d="M17.2687 3.79387C18.4254 3.79387 19.3781 4.73142 19.3781 5.86964V9.29687C19.3781 9.6852 19.0633 10 18.675 10C18.2867 10 17.9719 9.6852 17.9719 9.29687V5.86964C17.9719 5.47916 17.6655 5.17772 17.2687 5.17772H16.8V3.79387H17.2687Z" fill="#3473AE"/>
<path d="M7.91407 2.61007C8.04385 2.47847 8.22139 2.40295 8.40771 2.40009C8.50182 2.39864 8.59527 2.4158 8.68251 2.45054C8.76975 2.48529 8.84902 2.53692 8.91562 2.60237C8.98221 2.66782 9.03478 2.74576 9.0702 2.83157C9.10562 2.91738 9.12318 3.00931 9.12183 3.10192V5.86961C9.12314 5.9613 9.10593 6.05233 9.07119 6.13742C9.03644 6.2225 8.98486 6.29994 8.91944 6.36524C8.85402 6.43054 8.77606 6.48239 8.6901 6.51778C8.60414 6.55317 8.51188 6.57139 8.4187 6.57139C8.32552 6.57139 8.23327 6.55317 8.1473 6.51778C8.06134 6.48239 7.98339 6.43054 7.91796 6.36524C7.85254 6.29994 7.80096 6.2225 7.76622 6.13742C7.73147 6.05233 7.71426 5.9613 7.71558 5.86961V5.17769H6.30933C5.91253 5.17769 5.6062 5.47914 5.6062 5.86961V18.3242C5.6062 18.7147 5.91253 19.0162 6.30933 19.0162H9.80803C10.1902 19.0162 10.5 19.3259 10.5 19.7081C10.5 20.0902 10.1902 20.4 9.80803 20.4H6.30933C5.15269 20.4 4.19995 19.4624 4.19995 18.3242V5.86961C4.19995 4.7314 5.15269 3.79384 6.30933 3.79384H7.71558V3.10192C7.7129 2.91856 7.7843 2.74166 7.91407 2.61007Z" fill="#3473AE"/>
<path d="M7.91231 8.45652C7.99878 8.42233 8.09128 8.40539 8.18445 8.40669H15.2157C15.3089 8.40539 15.4014 8.42233 15.4878 8.45652C15.5743 8.49071 15.653 8.54147 15.7194 8.60585C15.7857 8.67023 15.8384 8.74694 15.8744 8.83154C15.9103 8.91613 15.9288 9.00691 15.9288 9.09861C15.9288 9.19031 15.9103 9.28109 15.8744 9.36568C15.8384 9.45027 15.7857 9.52699 15.7194 9.59137C15.653 9.65575 15.5743 9.70651 15.4878 9.7407C15.4014 9.77489 15.3089 9.79183 15.2157 9.79053H8.18445C8.09128 9.79183 7.99878 9.77489 7.91231 9.7407C7.82585 9.70651 7.74716 9.65575 7.6808 9.59137C7.61445 9.52699 7.56176 9.45027 7.5258 9.36568C7.48983 9.28109 7.47131 9.19031 7.47131 9.09861C7.47131 9.00691 7.48983 8.91613 7.5258 8.83154C7.56176 8.74694 7.61445 8.67023 7.6808 8.60585C7.74716 8.54147 7.82585 8.49071 7.91231 8.45652Z" fill="#3473AE"/>
<path d="M7.91231 12.1468C7.99878 12.1126 8.09128 12.0956 8.18445 12.0969H11.4657C11.5589 12.0956 11.6514 12.1126 11.7378 12.1468C11.8243 12.181 11.903 12.2317 11.9694 12.2961C12.0357 12.3605 12.0884 12.4372 12.1244 12.5218C12.1603 12.6064 12.1788 12.6972 12.1788 12.7889C12.1788 12.8806 12.1603 12.9713 12.1244 13.0559C12.0884 13.1405 12.0357 13.2172 11.9694 13.2816C11.903 13.346 11.8243 13.3968 11.7378 13.431C11.6514 13.4651 11.5589 13.4821 11.4657 13.4808H8.18445C8.09128 13.4821 7.99878 13.4651 7.91231 13.431C7.82585 13.3968 7.74716 13.346 7.6808 13.2816C7.61445 13.2172 7.56176 13.1405 7.5258 13.0559C7.48983 12.9713 7.47131 12.8806 7.47131 12.7889C7.47131 12.6972 7.48983 12.6064 7.5258 12.5218C7.56176 12.4372 7.61445 12.3605 7.6808 12.2961C7.74716 12.2317 7.82585 12.181 7.91231 12.1468Z" fill="#3473AE"/>
<path d="M7.91231 15.837C7.99878 15.8028 8.09128 15.7859 8.18445 15.7872H9.5407C9.63388 15.7859 9.72638 15.8028 9.81284 15.837C9.8993 15.8712 9.978 15.922 10.0444 15.9864C10.1107 16.0507 10.1634 16.1275 10.1994 16.2121C10.2353 16.2966 10.2538 16.3874 10.2538 16.4791C10.2538 16.5708 10.2353 16.6616 10.1994 16.7462C10.1634 16.8308 10.1107 16.9075 10.0444 16.9719C9.978 17.0363 9.8993 17.087 9.81284 17.1212C9.72638 17.1554 9.63388 17.1723 9.5407 17.171H8.18445C8.09128 17.1723 7.99878 17.1554 7.91231 17.1212C7.82585 17.087 7.74716 17.0363 7.6808 16.9719C7.61445 16.9075 7.56176 16.8308 7.5258 16.7462C7.48983 16.6616 7.47131 16.5708 7.47131 16.4791C7.47131 16.3874 7.48983 16.2966 7.5258 16.2121C7.56176 16.1275 7.61445 16.0507 7.6808 15.9864C7.74716 15.922 7.82585 15.8712 7.91231 15.837Z" fill="#3473AE"/>
<path d="M20.9759 11C20.4563 11 19.9366 11.197 19.5428 11.591L13.1335 17.9997C13.0119 18.1213 12.9229 18.2726 12.8757 18.4386L12.0166 21.4467C11.9954 21.5211 11.9945 21.5999 12.0139 21.6748C12.0334 21.7497 12.0725 21.818 12.1272 21.8728C12.182 21.9275 12.2503 21.9666 12.3252 21.9861C12.4001 22.0055 12.4789 22.0046 12.5533 21.9834L15.562 21.1243L15.5625 21.1238C15.7275 21.0764 15.8783 20.9884 16.0003 20.8665L22.409 14.4572C23.1969 13.6692 23.1969 12.3789 22.409 11.591C22.0152 11.197 21.4956 11 20.9759 11ZM20.9759 11.8636C21.2715 11.8636 21.5667 11.9775 21.7943 12.2052C22.2503 12.6612 22.2508 13.387 21.7948 13.843L21.2332 14.4046L19.5954 12.7668L20.157 12.2052C20.3846 11.9775 20.6803 11.8636 20.9759 11.8636Z" fill="#3473AE"/>
</svg>
