<svg width="411" height="302" viewBox="0 0 411 302" fill="none" xmlns="http://www.w3.org/2000/svg">
<path d="M738 64.2231C720.741 59.6351 703.128 58.3897 685.541 54.6405C642.627 45.4887 605.894 21.4852 562.123 13.5916C521.987 6.35199 483.445 4.83641 445.775 22.0439C410.33 38.2349 377.638 63.1867 343.337 82.3818C284.769 115.156 221.715 143.3 153.084 142.336C89.4897 141.444 32.8125 126.071 -23.8375 98.159C-50.796 84.8784 -79.5708 76.1403 -106.389 62.8583C-132.034 50.1591 -160.917 37.5937 -189.761 34.362C-220.473 30.9242 -255.3 32.4967 -284.951 41.8973C-300.565 46.8465 -314.296 54.3391 -328 61.8019V341.912H738V64.2231Z" fill="#ECECEC"/>
<path d="M343.42 82.3825C317.373 96.9583 290.436 110.61 262.517 121.202C268.235 119.442 273.957 117.535 279.782 115.605C303.17 107.855 326.995 100.011 348.644 88.0012C373.821 74.0339 395.986 53.727 421.918 41.3293C449.534 28.1268 476.048 19.9972 505.555 13.8894C520.546 10.7885 535.769 11.916 551.025 11.7269C514.896 6.23179 480.018 6.44078 445.859 22.0446C410.413 38.2341 377.721 63.1873 343.42 82.3825Z" fill="#F5F5F5"/>
<path d="M738 2.57939C737.201 2.45001 736.402 2.31637 735.602 2.19978C614.873 -15.4172 498.972 76.987 396.985 129.339C286.246 186.185 121.876 209.578 4.42708 168.402C-66.1194 143.667 -137.017 115.629 -208.781 94.513C-239.776 85.3938 -268.713 80.894 -300.587 87.7369C-309.753 89.7032 -318.98 91.9495 -328 94.7902V341.903H738V2.57939Z" fill="#E3E3E3"/>
<path d="M738 155.81C734.697 157.913 731.546 159.789 728.598 161.296C660.202 196.272 587.973 210.343 511.421 216.707C335.19 231.355 186.241 143.914 22.0829 97.2549C-37.6287 80.2834 -110.249 74.0973 -170.931 86.8234C-233.575 99.9619 -279.497 136.299 -328 171.546V341.892H738V155.81Z" fill="#ECECEC"/>
<path d="M-256.633 134.113C-234.711 121.529 -212.952 110.094 -188.681 104.825C-150.247 96.4804 -107.428 87.1721 -67.4795 91.1346C-41.0399 93.7563 -16.8317 92.744 9.0408 100.18C22.8491 104.146 37.8924 107.014 51.4036 112.407C64.0578 117.458 75.1441 125.237 88.2631 129.031C117.763 137.561 147.716 144.684 176.285 156.66C212.786 171.966 253.052 184.308 291.927 192.656C305.444 195.56 319.1 198.201 332.842 200.261C227.96 174.609 128.198 127.416 22.083 97.2552C-37.6287 80.2837 -110.249 74.0977 -170.931 86.8224C-233.575 99.9608 -279.497 136.299 -328 171.546V179.344C-305.577 162.161 -280.725 147.941 -256.633 134.113Z" fill="#F5F5F5"/>
</svg>
