<svg width="18" height="18" viewBox="0 0 18 18" fill="none" xmlns="http://www.w3.org/2000/svg">
<path d="M9 0C4.03743 0 0 4.03743 0 9C0 13.9626 4.03743 18 9 18C13.9626 18 18 13.9626 18 9C18 4.03743 13.9626 0 9 0ZM9 1.35C13.233 1.35 16.65 4.76703 16.65 9C16.65 13.233 13.233 16.65 9 16.65C4.76702 16.65 1.35 13.233 1.35 9C1.35 4.76703 4.76702 1.35 9 1.35ZM11.9188 5.39033C11.7406 5.39454 11.5712 5.46911 11.4478 5.59775L9 8.04551L6.55225 5.59775C6.48933 5.53296 6.41405 5.48145 6.33086 5.44627C6.24768 5.4111 6.15828 5.39297 6.06797 5.39297C5.93363 5.393 5.80236 5.43311 5.69095 5.50817C5.57954 5.58323 5.49306 5.68982 5.44257 5.8143C5.39207 5.93878 5.37987 6.0755 5.40752 6.20696C5.43516 6.33842 5.5014 6.45864 5.59775 6.55225L8.04551 9L5.59775 11.4478C5.53297 11.51 5.48125 11.5845 5.44563 11.6669C5.41 11.7493 5.39118 11.838 5.39026 11.9278C5.38935 12.0176 5.40636 12.1067 5.44031 12.1899C5.47425 12.273 5.52445 12.3485 5.58795 12.4121C5.65145 12.4756 5.72699 12.5257 5.81013 12.5597C5.89328 12.5936 5.98236 12.6107 6.07216 12.6097C6.16196 12.6088 6.25068 12.59 6.33311 12.5544C6.41555 12.5187 6.49005 12.467 6.55225 12.4022L9 9.95449L11.4478 12.4022C11.51 12.467 11.5845 12.5187 11.6669 12.5544C11.7493 12.59 11.838 12.6088 11.9278 12.6097C12.0176 12.6107 12.1067 12.5936 12.1899 12.5597C12.273 12.5257 12.3485 12.4756 12.4121 12.4121C12.4756 12.3485 12.5257 12.273 12.5597 12.1899C12.5936 12.1067 12.6107 12.0176 12.6097 11.9278C12.6088 11.838 12.59 11.7493 12.5544 11.6669C12.5187 11.5845 12.467 11.51 12.4022 11.4478L9.95449 9L12.4022 6.55225C12.5004 6.45803 12.5678 6.33636 12.5956 6.20318C12.6234 6.07 12.6103 5.93152 12.5581 5.8059C12.5058 5.68029 12.4168 5.57339 12.3027 5.49924C12.1887 5.42508 12.0549 5.38712 11.9188 5.39033Z" fill="#A0A0A0"/>
</svg>
