<svg width="105" height="42" viewBox="0 0 105 42" fill="none" xmlns="http://www.w3.org/2000/svg">
<path d="M104.754 39.8898C106.028 30.6292 92.9604 23.0114 83.1377 22.2188C78.4541 21.8412 73.5889 22.556 69.1502 21.0112C59.5379 17.6591 55.6959 5.23956 46.3171 1.28224C39.3046 -1.67493 31.2286 0.956551 24.4294 4.38065C17.6302 7.80187 10.9117 12.1079 3.31704 12.595C-3.29193 13.0158 -10.4658 10.5659 -16.2476 13.794C-20.5565 16.1978 -22.8104 21.161 -26.7822 24.0923C-30.6645 26.9572 -35.7344 27.5625 -40.5535 27.8248C-45.3697 28.0871 -50.3617 28.1361 -54.7485 30.145C-59.1381 32.1539 -62.7697 36.7943 -61.859 41.5356L104.754 39.8898Z" fill="#ECECEC"/>
</svg>
