<svg width="167" height="62" viewBox="0 0 167 62" fill="none" xmlns="http://www.w3.org/2000/svg">
<path d="M173.453 41.4928C174.779 31.8578 161.183 23.9347 150.966 23.1107C146.095 22.7185 141.034 23.4632 136.418 21.8548C126.419 18.3692 122.425 5.44914 112.667 1.3334C105.371 -1.74239 96.9725 0.996295 89.9021 4.55461C82.8296 8.11512 75.8408 12.5944 67.9376 13.099C61.0655 13.5396 53.603 10.9904 47.5902 14.3482C43.1087 16.849 40.7622 22.0135 36.631 25.0584C32.5924 28.0395 27.3221 28.6696 22.3074 28.9428C17.2949 29.216 12.1062 29.2667 7.54098 31.3554C2.97576 33.4463 -0.800664 38.2738 0.14675 43.2025L173.453 41.4928Z" fill="#F5F5F5"/>
<path d="M251.758 59.8298C252.972 51.0103 240.526 43.7554 231.171 43.0005C226.711 42.6409 222.077 43.3217 217.85 41.8504C208.696 38.658 205.037 26.83 196.105 23.0612C189.426 20.2448 181.735 22.751 175.259 26.012C168.784 29.2702 162.386 33.3712 155.153 33.8351C148.858 34.2359 142.026 31.9027 136.52 34.977C132.416 37.2663 130.27 41.9931 126.487 44.7847C122.79 47.5132 117.961 48.0896 113.372 48.3394C108.785 48.5892 104.031 48.6359 99.8529 50.5491C95.6723 52.4623 92.2137 56.8817 93.0811 61.3972L251.758 59.8298Z" fill="#ECECEC"/>
</svg>
