<svg width="20" height="21" viewBox="0 0 20 21" fill="none" xmlns="http://www.w3.org/2000/svg">
<path d="M4.67589 2.16666C3.02221 2.16666 1.66663 3.52224 1.66663 5.17592V15.8241C1.66663 17.4777 3.02221 18.8333 4.67589 18.8333H15.324C16.9777 18.8333 18.3333 17.4777 18.3333 15.8241V5.17592C18.3333 3.52224 16.9777 2.16666 15.324 2.16666H4.67589ZM4.67589 3.55555H15.324C16.2268 3.55555 16.9444 4.27311 16.9444 5.17592V5.87036H3.05552V5.17592C3.05552 4.27311 3.77308 3.55555 4.67589 3.55555ZM3.05552 7.25925H16.9444V15.8241C16.9444 16.7269 16.2268 17.4444 15.324 17.4444H4.67589C3.77308 17.4444 3.05552 16.7269 3.05552 15.8241V7.25925ZM6.06477 9.1111C5.75781 9.1111 5.46342 9.23304 5.24636 9.4501C5.02931 9.66715 4.90737 9.96155 4.90737 10.2685C4.90737 10.5755 5.02931 10.8699 5.24636 11.0869C5.46342 11.304 5.75781 11.4259 6.06477 11.4259C6.37174 11.4259 6.66613 11.304 6.88319 11.0869C7.10024 10.8699 7.22218 10.5755 7.22218 10.2685C7.22218 9.96155 7.10024 9.66715 6.88319 9.4501C6.66613 9.23304 6.37174 9.1111 6.06477 9.1111Z" fill="#3473AE"/>
<path d="M9.18153 9.45011C9.39859 9.23305 9.69298 9.11111 9.99994 9.11111C10.3069 9.11111 10.6013 9.23305 10.8184 9.45011C11.0354 9.66717 11.1573 9.96156 11.1573 10.2685C11.1573 10.5755 11.0354 10.8699 10.8184 11.0869C10.6013 11.304 10.3069 11.4259 9.99994 11.4259C9.69298 11.4259 9.39859 11.304 9.18153 11.0869C8.96448 10.8699 8.84253 10.5755 8.84253 10.2685C8.84253 9.96156 8.96448 9.66717 9.18153 9.45011Z" fill="#A0A0A0"/>
<path d="M13.1167 9.45011C13.3338 9.23305 13.6282 9.11111 13.9351 9.11111C14.2421 9.11111 14.5365 9.23305 14.7535 9.45011C14.9706 9.66717 15.0925 9.96156 15.0925 10.2685C15.0925 10.5755 14.9706 10.8699 14.7535 11.0869C14.5365 11.304 14.2421 11.4259 13.9351 11.4259C13.6282 11.4259 13.3338 11.304 13.1167 11.0869C12.8997 10.8699 12.7777 10.5755 12.7777 10.2685C12.7777 9.96156 12.8997 9.66717 13.1167 9.45011Z" fill="#A0A0A0"/>
<path d="M5.24635 13.6168C5.4634 13.3997 5.75779 13.2778 6.06476 13.2778C6.37172 13.2778 6.66611 13.3997 6.88317 13.6168C7.10022 13.8338 7.22216 14.1282 7.22216 14.4352C7.22216 14.7422 7.10022 15.0365 6.88317 15.2536C6.66611 15.4707 6.37172 15.5926 6.06476 15.5926C5.75779 15.5926 5.4634 15.4707 5.24635 15.2536C5.02929 15.0365 4.90735 14.7422 4.90735 14.4352C4.90735 14.1282 5.02929 13.8338 5.24635 13.6168Z" fill="#A0A0A0"/>
<path d="M9.18153 13.6168C9.39859 13.3997 9.69298 13.2778 9.99994 13.2778C10.3069 13.2778 10.6013 13.3997 10.8184 13.6168C11.0354 13.8338 11.1573 14.1282 11.1573 14.4352C11.1573 14.7422 11.0354 15.0365 10.8184 15.2536C10.6013 15.4707 10.3069 15.5926 9.99994 15.5926C9.69298 15.5926 9.39859 15.4707 9.18153 15.2536C8.96448 15.0365 8.84253 14.7422 8.84253 14.4352C8.84253 14.1282 8.96448 13.8338 9.18153 13.6168Z" fill="#A0A0A0"/>
</svg>
