<svg width="14" height="15" viewBox="0 0 14 15" fill="none" xmlns="http://www.w3.org/2000/svg">
<path d="M7 0.75C3.27807 0.75 0.25 3.77807 0.25 7.5C0.25 11.2219 3.27807 14.25 7 14.25C10.7219 14.25 13.75 11.2219 13.75 7.5C13.75 3.77807 10.7219 0.75 7 0.75ZM7 1.7625C10.1747 1.7625 12.7375 4.32527 12.7375 7.5C12.7375 10.6747 10.1747 13.2375 7 13.2375C3.82527 13.2375 1.2625 10.6747 1.2625 7.5C1.2625 4.32527 3.82527 1.7625 7 1.7625ZM9.18914 4.79275C9.05544 4.79591 8.92842 4.85183 8.83582 4.94832L7 6.78413L5.16418 4.94832C5.117 4.89972 5.06054 4.86109 4.99815 4.83471C4.93576 4.80832 4.86871 4.79473 4.80098 4.79473C4.70023 4.79475 4.60177 4.82483 4.51822 4.88113C4.43466 4.93742 4.36979 5.01736 4.33192 5.11072C4.29406 5.20409 4.2849 5.30663 4.30564 5.40522C4.32637 5.50382 4.37605 5.59398 4.44832 5.66418L6.28413 7.5L4.44832 9.33582C4.39973 9.38246 4.36094 9.43834 4.33422 9.50017C4.3075 9.56199 4.29338 9.62853 4.2927 9.69588C4.29201 9.76323 4.30477 9.83004 4.33023 9.8924C4.35569 9.95476 4.39334 10.0114 4.44096 10.059C4.48859 10.1067 4.54524 10.1443 4.6076 10.1698C4.66996 10.1952 4.73677 10.208 4.80412 10.2073C4.87147 10.2066 4.93801 10.1925 4.99983 10.1658C5.06166 10.1391 5.11754 10.1003 5.16418 10.0517L7 8.21587L8.83582 10.0517C8.88246 10.1003 8.93834 10.1391 9.00017 10.1658C9.06199 10.1925 9.12853 10.2066 9.19588 10.2073C9.26323 10.208 9.33004 10.1952 9.3924 10.1698C9.45476 10.1443 9.51141 10.1067 9.55904 10.059C9.60666 10.0114 9.64431 9.95476 9.66977 9.8924C9.69523 9.83004 9.70799 9.76323 9.7073 9.69588C9.70662 9.62853 9.6925 9.56199 9.66578 9.50017C9.63906 9.43834 9.60027 9.38246 9.55168 9.33582L7.71587 7.5L9.55168 5.66418C9.6253 5.59353 9.67585 5.50227 9.69671 5.40239C9.71756 5.3025 9.70775 5.19864 9.66855 5.10443C9.62936 5.01022 9.56261 4.93005 9.47706 4.87443C9.39151 4.81881 9.29115 4.79034 9.18914 4.79275Z" fill="white"/>
</svg>
